<svg width="815" height="815" viewBox="0 0 815 815" fill="none" xmlns="http://www.w3.org/2000/svg">
<path fill-rule="evenodd" clip-rule="evenodd" d="M704.553 0H109.677C49.104 0 0 49.104 0 109.677V704.553C0 765.128 49.104 814.231 109.677 814.231H704.553C765.128 814.231 814.231 765.128 814.231 704.553V109.677C814.231 49.104 765.128 0 704.553 0ZM209.392 329.48C226.38 329.48 240.239 315.621 240.239 298.634C240.239 281.645 226.38 267.786 209.392 267.786C192.404 267.786 178.545 281.645 178.545 298.634C178.545 315.621 192.404 329.48 209.392 329.48ZM178.545 512.615C178.545 495.626 192.404 481.767 209.392 481.767C226.38 481.767 240.239 495.626 240.239 512.615C240.239 529.602 226.38 543.461 209.392 543.461C192.404 543.461 178.545 529.602 178.545 512.615ZM623.52 353.758C617.856 353.758 612.493 354.652 607.277 356.44C573.301 367.615 536.493 349.138 525.318 315.012C524.126 311.437 522.486 308.009 520.4 304.731C510.565 289.084 519.208 268.371 537.239 264.496C558.102 260.026 573.749 241.547 573.749 219.344C573.749 193.862 553.034 173.148 527.554 173.148C502.071 173.148 481.357 193.862 481.357 219.344C481.357 228.434 484.041 236.927 488.51 244.081C498.346 259.728 489.702 280.441 471.671 284.316C450.809 288.786 435.161 307.265 435.161 329.468C435.161 354.95 455.876 375.663 481.357 375.663C485.678 375.663 489.702 375.067 493.726 374.025C523.232 365.977 553.63 379.687 567.787 405.467C553.63 430.95 523.38 444.361 494.024 436.165C490 435.121 485.828 434.375 481.357 434.375C455.876 434.375 435.161 455.09 435.161 480.57C435.161 502.775 450.809 521.254 471.671 525.724C489.702 529.598 498.494 550.312 488.51 565.959C484.041 573.111 481.357 581.456 481.357 590.546C481.357 616.028 502.071 636.741 527.554 636.741C553.034 636.741 573.749 616.028 573.749 590.546C573.749 568.343 558.102 549.864 537.239 545.395C519.208 541.519 510.415 520.806 520.4 505.159C522.338 502.029 523.976 498.751 525.168 495.176C536.493 461.498 573.153 443.317 606.831 454.642C612.047 456.282 617.558 457.324 623.372 457.324C651.982 457.324 675.229 434.077 675.229 405.467C675.229 376.855 651.982 353.608 623.372 353.608L623.52 353.758ZM332.756 434.382C358.238 434.382 378.951 455.096 378.951 480.577C378.951 502.782 363.304 521.258 342.441 525.73C324.41 529.604 315.767 550.317 325.602 565.964C330.074 573.117 332.756 581.611 332.756 590.702C332.756 616.183 312.043 636.897 286.561 636.897C261.078 636.897 240.366 616.183 240.366 590.702C240.366 568.498 256.013 550.019 276.873 545.549C294.904 541.675 303.548 520.96 293.712 505.313C291.626 502.186 289.989 498.758 288.795 495.032C276.725 457.926 236.64 437.659 199.534 449.731C195.063 451.073 190.295 451.967 185.228 451.967C159.746 451.967 139.033 431.252 139.033 405.771C139.033 380.289 159.746 359.576 185.228 359.576C190.146 359.576 194.765 360.47 199.236 361.81C236.64 373.731 276.725 353.019 288.647 315.615C289.989 311.889 291.626 308.313 293.712 305.035C303.698 289.388 294.904 268.676 276.873 264.8C256.013 260.33 240.366 241.851 240.366 219.649C240.366 194.166 261.078 173.453 286.561 173.453C312.043 173.453 332.756 194.166 332.756 219.649C332.756 228.588 330.074 237.084 325.602 244.235C315.619 259.882 324.41 280.597 342.441 284.471C363.304 288.94 378.951 307.419 378.951 329.622C378.951 355.104 358.238 375.817 332.756 375.817C327.838 375.817 323.219 374.923 318.749 373.583C286.263 363.152 251.989 377.309 235.596 405.473C252.137 433.34 286.411 447.049 318.451 436.617C322.921 435.276 327.688 434.382 332.756 434.382ZM602.444 481.767C585.457 481.767 571.598 495.626 571.598 512.615C571.598 529.602 585.457 543.461 602.444 543.461C619.433 543.461 633.292 529.602 633.292 512.615C633.292 495.626 619.433 481.767 602.444 481.767ZM633.292 298.634C633.292 315.621 619.433 329.48 602.444 329.48C585.457 329.48 571.598 315.621 571.598 298.634C571.598 281.645 585.457 267.786 602.444 267.786C619.433 267.786 633.292 281.645 633.292 298.634ZM407.156 198.487C424.145 198.487 438.004 184.628 438.004 167.64C438.004 150.652 424.145 136.794 407.156 136.794C390.169 136.794 376.31 150.652 376.31 167.64C376.31 184.628 390.169 198.487 407.156 198.487ZM376.31 646.585C376.31 629.596 390.169 615.739 407.156 615.739C424.145 615.739 438.004 629.596 438.004 646.585C438.004 663.572 424.145 677.431 407.156 677.431C390.169 677.431 376.31 663.572 376.31 646.585Z" fill="white"/>
</svg>
