<?xml version="1.0"?>
<svg width="180" height="40" xmlns="http://www.w3.org/2000/svg" xmlns:svg="http://www.w3.org/2000/svg">
 <g class="layer">
  <title>Layer 1</title>
  <path clip-rule="evenodd" d="m33.94,0.81l-28.15,0c-2.87,0 -5.19,2.32 -5.19,5.19l0,28.15c0,2.86 2.32,5.19 5.19,5.19l28.15,0c2.86,0 5.19,-2.33 5.19,-5.19l0,-28.15c0,-2.87 -2.33,-5.19 -5.19,-5.19zm-23.43,15.59c0.8,0 1.46,-0.66 1.46,-1.46c0,-0.8 -0.66,-1.46 -1.46,-1.46c-0.81,0 -1.46,0.66 -1.46,1.46c0,0.8 0.65,1.46 1.46,1.46zm-1.46,8.67c0,-0.81 0.65,-1.46 1.46,-1.46c0.8,0 1.46,0.65 1.46,1.46c0,0.8 -0.66,1.46 -1.46,1.46c-0.81,0 -1.46,-0.66 -1.46,-1.46zm21.05,-7.52c-0.26,0 -0.52,0.04 -0.76,0.13c-1.61,0.53 -3.35,-0.35 -3.88,-1.96c-0.06,-0.17 -0.14,-0.34 -0.24,-0.49c-0.46,-0.74 -0.05,-1.72 0.8,-1.9c0.99,-0.22 1.73,-1.09 1.73,-2.14c0,-1.21 -0.98,-2.19 -2.19,-2.19c-1.2,0 -2.18,0.98 -2.18,2.19c0,0.43 0.12,0.83 0.34,1.17c0.46,0.74 0.05,1.72 -0.8,1.9c-0.99,0.21 -1.73,1.09 -1.73,2.14c0,1.21 0.98,2.19 2.19,2.19c0.2,0 0.39,-0.03 0.58,-0.08c1.4,-0.38 2.84,0.27 3.51,1.49c-0.67,1.2 -2.1,1.84 -3.49,1.45c-0.19,-0.05 -0.39,-0.09 -0.6,-0.09c-1.21,0 -2.19,0.98 -2.19,2.19c0,1.05 0.74,1.93 1.73,2.14c0.85,0.18 1.27,1.16 0.8,1.9c-0.22,0.34 -0.34,0.73 -0.34,1.16c0,1.21 0.98,2.19 2.18,2.19c1.21,0 2.19,-0.98 2.19,-2.19c0,-1.05 -0.74,-1.92 -1.73,-2.13c-0.85,-0.19 -1.27,-1.17 -0.8,-1.91c0.1,-0.14 0.17,-0.3 0.23,-0.47c0.54,-1.59 2.27,-2.45 3.86,-1.92c0.25,0.08 0.51,0.13 0.79,0.13c1.35,0 2.45,-1.1 2.45,-2.45c0,-1.36 -1.1,-2.46 -2.45,-2.46l0,0.01zm-13.75,3.81c1.2,0 2.18,0.98 2.18,2.19c0,1.05 -0.74,1.93 -1.73,2.14c-0.85,0.18 -1.26,1.16 -0.79,1.9c0.21,0.34 0.34,0.74 0.34,1.17c0,1.21 -0.98,2.19 -2.19,2.19c-1.21,0 -2.19,-0.98 -2.19,-2.19c0,-1.05 0.74,-1.92 1.73,-2.14c0.85,-0.18 1.26,-1.16 0.8,-1.9c-0.1,-0.15 -0.18,-0.31 -0.23,-0.49c-0.58,-1.75 -2.47,-2.71 -4.23,-2.14c-0.21,0.06 -0.44,0.11 -0.68,0.11c-1.2,0 -2.18,-0.98 -2.18,-2.19c0,-1.21 0.98,-2.19 2.18,-2.19c0.24,0 0.46,0.05 0.67,0.11c1.77,0.56 3.66,-0.42 4.23,-2.19c0.06,-0.17 0.14,-0.34 0.24,-0.5c0.47,-0.74 0.05,-1.72 -0.8,-1.9c-0.99,-0.21 -1.73,-1.09 -1.73,-2.14c0,-1.2 0.98,-2.18 2.19,-2.18c1.21,0 2.19,0.98 2.19,2.18c0,0.43 -0.13,0.83 -0.34,1.17c-0.48,0.74 -0.06,1.72 0.79,1.9c0.99,0.21 1.73,1.09 1.73,2.14c0,1.2 -0.98,2.18 -2.18,2.18c-0.24,0 -0.46,-0.04 -0.67,-0.1c-1.53,-0.5 -3.16,0.17 -3.93,1.51c0.78,1.32 2.4,1.96 3.92,1.47c0.21,-0.06 0.44,-0.11 0.68,-0.11zm12.76,2.25c-0.81,0 -1.46,0.65 -1.46,1.46c0,0.8 0.65,1.46 1.46,1.46c0.8,0 1.46,-0.66 1.46,-1.46c0,-0.81 -0.66,-1.46 -1.46,-1.46zm1.46,-8.67c0,0.8 -0.66,1.46 -1.46,1.46c-0.81,0 -1.46,-0.66 -1.46,-1.46c0,-0.8 0.65,-1.46 1.46,-1.46c0.8,0 1.46,0.66 1.46,1.46zm-10.7,-4.74c0.8,0 1.46,-0.65 1.46,-1.46c0,-0.8 -0.66,-1.46 -1.46,-1.46c-0.81,0 -1.46,0.66 -1.46,1.46c0,0.81 0.65,1.46 1.46,1.46zm-1.46,21.21c0,-0.81 0.65,-1.46 1.46,-1.46c0.8,0 1.46,0.65 1.46,1.46c0,0.8 -0.66,1.46 -1.46,1.46c-0.81,0 -1.46,-0.66 -1.46,-1.46z" fill="#2756D3" fill-rule="evenodd" id="svg_1"/>
  <g id="svg_11">
   <path d="m41.77,30.62l7.47,-20.58l5.18,0l7.34,20.58l-5.13,0l-0.85,-2.55l-7.92,0l-0.85,2.55l-5.26,0zm12.73,-6.48l-2.66,-8.12l-2.66,8.12l5.33,0z" fill="#2756D3" id="svg_2"/>
   <path d="m63.09,10.07l5.04,0l0,20.55l-5.04,0l0,-20.55z" fill="#2756D3" id="svg_3"/>
   <path d="m77.26,9.88l5.28,0l3.72,12.8l3.76,-12.8l4.2,0l3.84,12.8l3.63,-12.8l5.24,0l-6.11,20.58l-5.05,0l-3.64,-12.46l-3.56,12.46l-5.11,0l-6.21,-20.58z" fill="#2756D3" id="svg_4"/>
   <path d="m117.44,30.83c-6.21,0 -10.67,-4.97 -10.67,-10.7c0,-5.73 4.46,-10.68 10.67,-10.68c6.19,0 10.63,4.98 10.63,10.68c0,5.7 -4.45,10.7 -10.63,10.7zm0,-5.04c3.24,0 5.6,-2.58 5.6,-5.66c0,-3.07 -2.36,-5.63 -5.6,-5.63c-3.24,0 -5.63,2.56 -5.63,5.63c0,3.08 2.36,5.66 5.63,5.66z" fill="#2756D3" id="svg_5"/>
   <path d="m130.42,9.85l5.14,0c6.77,0 9.29,3.99 9.29,8.27c0,2.42 -0.82,4.75 -2.62,6.29l3.11,6.06l-5.8,0l-1.71,-4.18c-0.48,0.07 -0.99,0.09 -1.54,0.09l-0.85,0l0,4.1l-5.01,0l0,-20.62l0,-0.01zm6,11.63c2.32,0 3.51,-1.45 3.51,-3.37c0,-1.93 -1.22,-3.36 -3.51,-3.36l-0.99,0l0,6.72l0.99,0z" fill="#2756D3" id="svg_6"/>
   <path d="m148.3,9.83l5.01,0l0,15.85l6.02,0l0,4.78l-11.03,0l0,-20.63l0,0z" fill="#2756D3" id="svg_7"/>
   <path d="m161.98,9.83l4.81,0c7.85,0 11.19,4.65 11.19,10.25c0,5.6 -3.34,10.38 -11.19,10.38l-4.81,0l0,-20.63l0,0zm5.44,15.55c3.86,0 5.53,-2.4 5.53,-5.3c0,-2.91 -1.67,-5.21 -5.53,-5.21l-0.43,0l0,10.51l0.43,0z" fill="#2756D3" id="svg_8"/>
   <path d="m161.98,9.83l4.81,0c7.85,0 11.19,4.65 11.19,10.25c0,5.6 -3.34,10.38 -11.19,10.38l-4.81,0l0,-20.63l0,0zm5.44,15.55c3.86,0 5.53,-2.4 5.53,-5.3c0,-2.91 -1.67,-5.21 -5.53,-5.21l-0.43,0l0,10.51l0.43,0z" fill="#2756D3" id="svg_9"/>
   <path d="m148.3,9.83l5.01,0l0,15.85l6.02,0l0,4.78l-11.03,0l0,-20.63l0,0z" fill="#2756D3" id="svg_10"/>
  </g>
 </g>
</svg>