<svg width="40" height="40" viewBox="0 0 40 40" fill="none" xmlns="http://www.w3.org/2000/svg">
<path fill-rule="evenodd" clip-rule="evenodd" d="M33.3386 0H5.18977C2.32354 0 0 2.32354 0 5.18977V33.3386C0 36.2049 2.32354 38.5284 5.18977 38.5284H33.3386C36.2049 38.5284 38.5284 36.2049 38.5284 33.3386V5.18977C38.5284 2.32354 36.2049 0 33.3386 0ZM9.90817 15.5906C10.712 15.5906 11.3678 14.9348 11.3678 14.131C11.3678 13.3271 10.712 12.6713 9.90817 12.6713C9.10432 12.6713 8.44855 13.3271 8.44855 14.131C8.44855 14.9348 9.10432 15.5906 9.90817 15.5906ZM8.44855 24.2563C8.44855 23.4524 9.10432 22.7966 9.90817 22.7966C10.712 22.7966 11.3678 23.4524 11.3678 24.2563C11.3678 25.0601 10.712 25.7159 9.90817 25.7159C9.10432 25.7159 8.44855 25.0601 8.44855 24.2563ZM29.5042 16.7394C29.2362 16.7394 28.9824 16.7817 28.7356 16.8663C27.1279 17.3951 25.3862 16.5208 24.8574 14.906C24.801 14.7368 24.7234 14.5746 24.6247 14.4195C24.1593 13.6791 24.5683 12.699 25.4215 12.5156C26.4087 12.3041 27.1491 11.4297 27.1491 10.3791C27.1491 9.17331 26.1689 8.19317 24.9632 8.19317C23.7574 8.19317 22.7772 9.17331 22.7772 10.3791C22.7772 10.8092 22.9042 11.2111 23.1157 11.5496C23.5811 12.29 23.1721 13.2701 22.3189 13.4535C21.3317 13.665 20.5913 14.5394 20.5913 15.59C20.5913 16.7958 21.5715 17.7759 22.7772 17.7759C22.9817 17.7759 23.1721 17.7477 23.3625 17.6984C24.7587 17.3176 26.1971 17.9663 26.867 19.1862C26.1971 20.392 24.7657 21.0266 23.3766 20.6388C23.1862 20.5894 22.9888 20.5541 22.7772 20.5541C21.5715 20.5541 20.5913 21.5343 20.5913 22.74C20.5913 23.7907 21.3317 24.6651 22.3189 24.8766C23.1721 25.0599 23.5881 26.0401 23.1157 26.7805C22.9042 27.1189 22.7772 27.5138 22.7772 27.9439C22.7772 29.1497 23.7574 30.1298 24.9632 30.1298C26.1689 30.1298 27.1491 29.1497 27.1491 27.9439C27.1491 26.8933 26.4087 26.0189 25.4215 25.8074C24.5683 25.624 24.1522 24.6439 24.6247 23.9035C24.7164 23.7554 24.7939 23.6003 24.8503 23.4311C25.3862 21.8375 27.1209 20.9772 28.7145 21.5131C28.9613 21.5907 29.2221 21.64 29.4972 21.64C30.851 21.64 31.951 20.54 31.951 19.1862C31.951 17.8323 30.851 16.7323 29.4972 16.7323L29.5042 16.7394ZM15.7456 20.5544C16.9514 20.5544 17.9315 21.5346 17.9315 22.7403C17.9315 23.791 17.1911 24.6653 16.2039 24.8769C15.3507 25.0602 14.9417 26.0403 15.4071 26.7807C15.6187 27.1192 15.7456 27.5211 15.7456 27.9513C15.7456 29.157 14.7655 30.1372 13.5597 30.1372C12.3539 30.1372 11.3738 29.157 11.3738 27.9513C11.3738 26.9006 12.1142 26.0262 13.1013 25.8147C13.9545 25.6314 14.3635 24.6512 13.8981 23.9108C13.7994 23.7628 13.7219 23.6006 13.6654 23.4243C13.0943 21.6685 11.1975 20.7095 9.4417 21.2807C9.23016 21.3442 9.00452 21.3865 8.76478 21.3865C7.559 21.3865 6.57887 20.4063 6.57887 19.2006C6.57887 17.9948 7.559 17.0147 8.76478 17.0147C8.99747 17.0147 9.21606 17.057 9.4276 17.1204C11.1975 17.6845 13.0943 16.7044 13.6584 14.9345C13.7219 14.7582 13.7994 14.589 13.8981 14.4339C14.3706 13.6935 13.9545 12.7134 13.1013 12.53C12.1142 12.3185 11.3738 11.4441 11.3738 10.3935C11.3738 9.18769 12.3539 8.20756 13.5597 8.20756C14.7655 8.20756 15.7456 9.18769 15.7456 10.3935C15.7456 10.8165 15.6187 11.2185 15.4071 11.5569C14.9347 12.2973 15.3507 13.2775 16.2039 13.4608C17.1911 13.6723 17.9315 14.5467 17.9315 15.5973C17.9315 16.8031 16.9514 17.7832 15.7456 17.7832C15.5129 17.7832 15.2943 17.7409 15.0828 17.6775C13.5456 17.1839 11.9238 17.8538 11.1481 19.1865C11.9308 20.5051 13.5526 21.1538 15.0687 20.6602C15.2802 20.5967 15.5058 20.5544 15.7456 20.5544ZM28.5069 22.7966C27.7031 22.7966 27.0473 23.4524 27.0473 24.2563C27.0473 25.0601 27.7031 25.7159 28.5069 25.7159C29.3108 25.7159 29.9666 25.0601 29.9666 24.2563C29.9666 23.4524 29.3108 22.7966 28.5069 22.7966ZM29.9666 14.131C29.9666 14.9348 29.3108 15.5906 28.5069 15.5906C27.7031 15.5906 27.0473 14.9348 27.0473 14.131C27.0473 13.3271 27.7031 12.6713 28.5069 12.6713C29.3108 12.6713 29.9666 13.3271 29.9666 14.131ZM19.2661 9.39216C20.07 9.39216 20.7258 8.73638 20.7258 7.93253C20.7258 7.12868 20.07 6.47291 19.2661 6.47291C18.4623 6.47291 17.8065 7.12868 17.8065 7.93253C17.8065 8.73638 18.4623 9.39216 19.2661 9.39216ZM17.8065 30.5956C17.8065 29.7917 18.4623 29.136 19.2661 29.136C20.07 29.136 20.7258 29.7917 20.7258 30.5956C20.7258 31.3994 20.07 32.0552 19.2661 32.0552C18.4623 32.0552 17.8065 31.3994 17.8065 30.5956Z" fill="#2756D3"/>
</svg>
